<?xml version="1.0" encoding="UTF-8" standalone="no"?>
<!-- Created with Inkscape (http://www.inkscape.org/) -->

<svg
   width="20"
   height="20"
   viewBox="0 0 5.2916668 5.2916668"
   version="1.1"
   id="svg5"
   xml:space="preserve"
   inkscape:export-filename="image.svg"
   inkscape:export-xdpi="96"
   inkscape:export-ydpi="96"
   xmlns:inkscape="http://www.inkscape.org/namespaces/inkscape"
   xmlns:sodipodi="http://sodipodi.sourceforge.net/DTD/sodipodi-0.dtd"
   xmlns="http://www.w3.org/2000/svg"
   xmlns:svg="http://www.w3.org/2000/svg"><sodipodi:namedview
     id="namedview7"
     pagecolor="#505050"
     bordercolor="#eeeeee"
     borderopacity="1"
     inkscape:showpageshadow="0"
     inkscape:pageopacity="0"
     inkscape:pagecheckerboard="0"
     inkscape:deskcolor="#505050"
     inkscape:document-units="mm"
     showgrid="false" /><defs
     id="defs2" /><g
     inkscape:label="Calque 1"
     inkscape:groupmode="layer"
     id="layer1"><g
       id="g72"
       transform="matrix(0.26458333,0,0,0.26458333,98.830385,63.974704)"><g
         id="g41"
         transform="matrix(0.24030345,0,0,0.24030345,-375.50167,-243.83053)"><g
           id="g39"><path
             d="M 84.477,10 H 82.244 82.243 31.571 C 25.987,10 21.445,14.543 21.445,20.126 V 72.885 H 14.29 c -2.365,0 -4.29,1.925 -4.29,4.29 v 7.302 C 10,87.523 12.477,90 15.522,90 h 55.274 2.234 c 3.043,0 5.518,-2.474 5.522,-5.516 0,-0.002 10e-4,-0.004 10e-4,-0.006 V 50.916 h 5.923 c 3.045,0 5.523,-2.478 5.523,-5.523 V 15.522 C 90,12.477 87.522,10 84.477,10 Z M 15.522,88.168 c -2.034,0 -3.69,-1.655 -3.69,-3.69 v -7.302 c 0,-1.355 1.102,-2.457 2.457,-2.457 h 48.527 c 1.355,0 2.457,1.102 2.457,2.457 v 7.302 c 0,1.417 0.537,2.711 1.417,3.69 z m 61.2,-72.647 v 0 l -10e-4,0.002 V 50 84.478 c 0,2.035 -1.655,3.69 -3.69,3.69 h -2.234 c -2.035,0 -3.69,-1.655 -3.69,-3.69 v -7.302 c 0,-2.365 -1.925,-4.29 -4.29,-4.29 h -39.54 v -52.76 c 0,-4.573 3.721,-8.294 8.294,-8.294 h 46.567 c -0.88,0.978 -1.416,2.272 -1.416,3.689 z m 11.445,29.873 c 0,2.035 -1.655,3.69 -3.69,3.69 H 78.554 V 15.521 c 0,-2.034 1.655,-3.688 3.689,-3.688 h 2.233 c 2.035,0 3.69,1.655 3.69,3.69 v 29.871 z"
             id="path9" /><path
             d="m 35.401,24.522 c 0.172,2.112 0.493,6.043 1.979,8.628 1.245,2.157 2.83,3.496 4.582,3.87 0.344,0.073 0.69,0.11 1.038,0.11 0.866,0 1.739,-0.23 2.589,-0.674 0.484,0.936 1.112,2.082 1.56,2.87 -0.745,1.658 -1.429,3.431 -2.029,5.287 -0.156,0.481 0.108,0.998 0.589,1.153 0.094,0.03 0.189,0.045 0.282,0.045 0.387,0 0.746,-0.246 0.872,-0.634 0.631,-1.947 1.352,-3.803 2.142,-5.516 0.009,-0.02 0.018,-0.04 0.026,-0.062 0.455,-0.988 0.935,-1.942 1.426,-2.837 0.896,-1.641 1.823,-3.098 2.744,-4.391 0.327,0.365 0.66,0.684 0.968,0.932 1.346,1.079 2.827,1.637 4.325,1.637 0.257,0 0.515,-0.016 0.771,-0.049 2.154,-0.276 4.164,-1.653 5.979,-4.093 2.224,-3.001 3.238,-8.071 3.726,-10.508 0.089,-0.447 0.19,-0.947 0.247,-1.163 0.086,-0.132 0.139,-0.286 0.147,-0.454 0.026,-0.502 -0.359,-0.931 -0.862,-0.96 -0.019,-0.002 -0.037,-0.002 -0.055,-0.003 -0.68,-0.024 -7.794,-0.213 -12.243,2.679 -3.671,2.387 -5.431,5.518 -4.827,8.59 0.126,0.642 0.381,1.26 0.701,1.831 -1.084,1.473 -2.179,3.149 -3.229,5.071 -0.25,0.455 -0.496,0.927 -0.738,1.408 -0.352,-0.641 -0.717,-1.325 -1.009,-1.897 0.78,-0.705 1.334,-1.519 1.628,-2.437 0.777,-2.424 -0.335,-5.107 -3.049,-7.359 -3.249,-2.693 -8.859,-3.206 -9.424,-3.251 -0.017,-0.002 -0.034,-0.003 -0.051,-0.004 -0.519,-0.042 -0.934,0.353 -0.967,0.854 -0.01,0.156 0.019,0.304 0.079,0.438 0.025,0.177 0.055,0.552 0.083,0.889 z m 21.803,-2.597 c 3.083,-2.004 7.865,-2.342 10.049,-2.386 -0.025,0.123 -0.052,0.253 -0.079,0.39 -0.462,2.306 -1.422,7.105 -3.401,9.775 -1.484,1.995 -3.123,3.16 -4.74,3.367 -1.277,0.167 -2.522,-0.241 -3.716,-1.2 -0.357,-0.287 -0.692,-0.633 -0.99,-1.003 3.631,-4.624 6.904,-6.67 7.378,-6.952 0.048,-0.029 0.102,-0.068 0.144,-0.105 0.381,-0.334 0.416,-0.909 0.083,-1.29 -0.302,-0.343 -0.803,-0.406 -1.177,-0.172 -0.536,0.32 -3.777,2.368 -7.415,6.83 -0.07,-0.189 -0.129,-0.376 -0.164,-0.554 -0.452,-2.3 1.017,-4.742 4.028,-6.7 z m -12.692,5.08 c 2.109,1.75 3.01,3.714 2.473,5.39 -0.143,0.448 -0.395,0.863 -0.73,1.248 L 46.235,33.6 c -1.084,-2.248 -2.421,-4.804 -4.563,-6.697 -0.379,-0.336 -0.959,-0.299 -1.293,0.08 -0.335,0.379 -0.299,0.958 0.08,1.293 1.886,1.668 3.072,3.938 4.126,6.121 l 0.198,0.414 c -0.67,0.357 -1.518,0.614 -2.438,0.416 -1.231,-0.262 -2.399,-1.297 -3.377,-2.992 -1.281,-2.228 -1.591,-6.034 -1.741,-7.863 -0.002,-0.022 -0.004,-0.045 -0.005,-0.067 1.77,0.261 5.201,0.969 7.29,2.7 z"
             id="path11" /><path
             d="m 28.006,51.523 h 15.772 c 0.506,0 0.916,-0.41 0.916,-0.916 0,-0.506 -0.41,-0.916 -0.916,-0.916 H 28.006 c -0.506,0 -0.916,0.41 -0.916,0.916 0,0.506 0.41,0.916 0.916,0.916 z"
             id="path13" /><path
             d="m 28.006,57.454 h 5.227 c 0.506,0 0.916,-0.41 0.916,-0.916 0,-0.506 -0.41,-0.916 -0.916,-0.916 h -5.227 c -0.506,0 -0.916,0.41 -0.916,0.916 0,0.506 0.41,0.916 0.916,0.916 z"
             id="path15" /><path
             d="m 35.501,56.537 c 0,0.506 0.41,0.916 0.916,0.916 h 12.969 c 0.506,0 0.916,-0.41 0.916,-0.916 0,-0.506 -0.41,-0.916 -0.916,-0.916 H 36.418 c -0.506,0 -0.917,0.41 -0.917,0.916 z"
             id="path17" /><path
             d="M 71.353,55.621 H 52.302 c -0.506,0 -0.916,0.41 -0.916,0.916 0,0.506 0.41,0.916 0.916,0.916 h 19.051 c 0.506,0 0.916,-0.41 0.916,-0.916 10e-4,-0.506 -0.409,-0.916 -0.916,-0.916 z"
             id="path19" /><path
             d="m 28.006,63.384 h 9.925 c 0.506,0 0.916,-0.41 0.916,-0.916 0,-0.506 -0.41,-0.916 -0.916,-0.916 h -9.925 c -0.506,0 -0.916,0.41 -0.916,0.916 0,0.506 0.41,0.916 0.916,0.916 z"
             id="path21" /><path
             d="m 46.77,62.467 c 0,-0.506 -0.41,-0.916 -0.916,-0.916 h -4.443 c -0.506,0 -0.916,0.41 -0.916,0.916 0,0.506 0.41,0.916 0.916,0.916 h 4.443 c 0.505,10e-4 0.916,-0.409 0.916,-0.916 z"
             id="path23" /><path
             d="m 48.63,62.467 c 0,0.506 0.41,0.916 0.916,0.916 h 4.443 c 0.506,0 0.916,-0.41 0.916,-0.916 0,-0.506 -0.41,-0.916 -0.916,-0.916 h -4.443 c -0.505,0 -0.916,0.41 -0.916,0.916 z"
             id="path25" /><path
             d="m 71.353,61.551 h -14.4 c -0.506,0 -0.916,0.41 -0.916,0.916 0,0.506 0.41,0.916 0.916,0.916 h 14.4 c 0.506,0 0.916,-0.41 0.916,-0.916 10e-4,-0.506 -0.409,-0.916 -0.916,-0.916 z"
             id="path27" /><path
             d="M 43.778,67.481 H 28.006 c -0.506,0 -0.916,0.41 -0.916,0.916 0,0.506 0.41,0.916 0.916,0.916 h 15.772 c 0.506,0 0.916,-0.41 0.916,-0.916 0,-0.506 -0.41,-0.916 -0.916,-0.916 z"
             id="path29" /><path
             d="M 62.803,67.481 H 47.031 c -0.506,0 -0.916,0.41 -0.916,0.916 0,0.506 0.41,0.916 0.916,0.916 h 15.772 c 0.506,0 0.916,-0.41 0.916,-0.916 0,-0.506 -0.41,-0.916 -0.916,-0.916 z"
             id="path31" /><path
             d="M 71.308,67.481 H 65.96 c -0.506,0 -0.916,0.41 -0.916,0.916 0,0.506 0.41,0.916 0.916,0.916 h 5.347 c 0.506,0 0.916,-0.41 0.916,-0.916 0,-0.506 -0.409,-0.916 -0.915,-0.916 z"
             id="path33" /><path
             d="m 52.302,51.523 c 0.506,0 0.916,-0.41 0.916,-0.916 0,-0.506 -0.41,-0.916 -0.916,-0.916 h -5.271 c -0.506,0 -0.916,0.41 -0.916,0.916 0,0.506 0.41,0.916 0.916,0.916 z"
             id="path35" /><path
             d="m 54.666,50.607 c 0,0.506 0.41,0.916 0.916,0.916 h 15.771 c 0.506,0 0.916,-0.41 0.916,-0.916 0,-0.506 -0.41,-0.916 -0.916,-0.916 H 55.582 C 55.076,49.69 54.666,50.1 54.666,50.607 Z"
             id="path37" /></g></g></g></g></svg>
